<?xml version="1.0" standalone="no"?>
<!DOCTYPE svg PUBLIC "-//W3C//DTD SVG 20010904//EN"
 "http://www.w3.org/TR/2001/REC-SVG-20010904/DTD/svg10.dtd">
<svg version="1.0" xmlns="http://www.w3.org/2000/svg"
 width="32.000000pt" height="32.000000pt" viewBox="0 0 32.000000 32.000000"
 preserveAspectRatio="xMidYMid meet">

<g transform="translate(0.000000,32.000000) scale(0.100000,-0.100000)"
fill="#000000" stroke="none">
<path d="M75 217 c-16 -19 -19 -34 -17 -80 3 -41 8 -57 18 -57 8 0 14 5 14 10
0 6 30 10 70 10 40 0 70 -4 70 -10 0 -5 6 -10 14 -10 10 0 15 16 18 57 2 48
-1 61 -18 80 -18 19 -31 23 -85 23 -54 0 -67 -4 -84 -23z m154 -9 c5 -13 7
-26 4 -30 -6 -10 -140 -10 -146 0 -3 4 -1 17 4 30 7 19 15 22 69 22 54 0 62
-3 69 -22z m-139 -74 c0 -8 -5 -12 -10 -9 -6 4 -8 11 -5 16 9 14 15 11 15 -7z
m120 6 c0 -5 -22 -10 -50 -10 -27 0 -50 5 -50 10 0 6 23 10 50 10 28 0 50 -4
50 -10z m35 1 c3 -5 1 -12 -5 -16 -5 -3 -10 1 -10 9 0 18 6 21 15 7z"/>
</g>
</svg>
